<?xml version="1.0" encoding="UTF-8" standalone="no"?>
<!-- Created with Inkscape (http://www.inkscape.org/) -->

<svg
   version="1.1"
   id="svg1"
   width="667"
   height="667"
   viewBox="0 0 667 667"
   sodipodi:docname="Coppel-NPS-Sentinel-Logo.svg"
   inkscape:version="1.4.3 (0d15f75, 2025-12-25)"
   xmlns:inkscape="http://www.inkscape.org/namespaces/inkscape"
   xmlns:sodipodi="http://sodipodi.sourceforge.net/DTD/sodipodi-0.dtd"
   xmlns="http://www.w3.org/2000/svg"
   xmlns:svg="http://www.w3.org/2000/svg">
  <defs
     id="defs1" />
  <sodipodi:namedview
     id="namedview1"
     pagecolor="#505050"
     bordercolor="#ffffff"
     borderopacity="1"
     inkscape:showpageshadow="0"
     inkscape:pageopacity="0"
     inkscape:pagecheckerboard="1"
     inkscape:deskcolor="#505050"
     showgrid="false"
     inkscape:zoom="1.2371718"
     inkscape:cx="378.28213"
     inkscape:cy="356.05402"
     inkscape:window-width="2560"
     inkscape:window-height="1369"
     inkscape:window-x="2552"
     inkscape:window-y="-8"
     inkscape:window-maximized="1"
     inkscape:current-layer="g1" />
  <g
     inkscape:groupmode="layer"
     inkscape:label="Image"
     id="g1">
    <g
       id="g2"
       transform="translate(-8.8912467,8.0829548)">
      <path
         style="fill:#fefefe"
         d="m 124.19613,438.6069 v -21.5 h 4.5 4.5 v 1.57258 1.57258 l 2.63485,-2.07258 2.63486,-2.07258 4.61514,0.004 4.61515,0.004 3.31017,2.01816 3.31018,2.01816 1.43982,3.44598 1.43983,3.44599 v 5.56423 5.56424 l -1.43983,3.44599 -1.43982,3.44598 -3.31018,2.01816 -3.31017,2.01816 -4.5275,0.004 -4.52749,0.004 -2.22251,-1.5567 -2.2225,-1.5567 v 7.0567 7.0567 h -5 -5 z m 21.13921,0.58836 2.36079,-1.91165 v -4.67671 -4.6767 l -2.36079,-1.91165 -2.36078,-1.91165 h -2.07477 -2.07476 l -2.31445,2.17432 -2.31445,2.17431 v 4.01124 4.01123 l 2.17431,2.31445 2.17431,2.31445 h 2.21491 2.2149 z m 16.86079,-0.58836 v -21.5 h 4.5 4.5 v 1.57258 1.57258 l 2.63485,-2.07258 2.63486,-2.07258 4.61514,0.004 4.61515,0.004 3.31017,2.01816 3.31018,2.01816 1.43982,3.44598 1.43983,3.44599 v 5.56423 5.56424 l -1.43983,3.44599 -1.43982,3.44598 -3.31018,2.01816 -3.31017,2.01816 -4.5275,0.004 -4.52749,0.004 -2.22251,-1.5567 -2.2225,-1.5567 v 7.0567 7.0567 h -5 -5 z m 21.13921,0.58836 2.36079,-1.91165 v -4.67671 -4.6767 l -2.36079,-1.91165 -2.36078,-1.91165 h -2.07477 -2.07476 l -2.31445,2.17432 -2.31445,2.17431 v 4.01124 4.01123 l 2.17431,2.31445 2.17431,2.31445 h 2.21491 2.2149 z m -129.639215,8.01578 -4,-1.85194 -2.696952,-2.8761 -2.696952,-2.8761 -1.553048,-3.71788 -1.553048,-3.71788 0.02196,-6.28212 0.02196,-6.28212 1.85194,-4 1.851939,-4 2.876099,-2.69695 2.876098,-2.69695 3.717882,-1.55305 3.717881,-1.55305 h 5.64679 5.64679 l 4.910439,2.6726 4.910439,2.6726 2.101689,3.4006 2.10169,3.4006 -0.8768,0.76653 -0.8768,0.76652 -3.081024,1.21161 -3.081025,1.2116 -4.180124,-4.18012 -4.180124,-4.18013 -4.529431,0.51053 -4.529432,0.51054 -2.061799,1.8659 -2.061799,1.8659 -1.513006,2.92583 -1.513005,2.92583 v 4.65306 4.65307 l 1.513005,2.92583 1.513006,2.92582 2.061799,1.86591 2.061799,1.8659 4.529432,0.51053 4.529431,0.51054 4.157911,-4.15792 4.157912,-4.15791 3.603237,1.16043 3.603237,1.16043 0.768104,0.43889 0.768103,0.43889 -2.179257,3.1798 -2.179258,3.17979 -2.088846,1.77761 -2.088846,1.77761 -3.372124,1.47239 -3.372124,1.47239 -5.627876,-0.022 -5.627876,-0.022 z m 40.489831,-0.35414 -3.305936,-2.25 -1.981582,-2.6755 -1.981583,-2.67551 -0.481297,-5.00896 -0.481297,-5.00895 2.121022,-4.38145 2.121021,-4.38144 3.886065,-2.1841 3.886065,-2.18409 h 5.465966 5.46596 l 3.30593,2.25 3.30594,2.25 2.09195,2.82333 2.09195,2.82333 v 6.35334 6.35334 l -2.09195,2.82333 -2.09195,2.82333 -3.30594,2.25 -3.30593,2.25 h -5.70423 -5.704238 z m 13.695714,-7.92431 2.31446,-2.17431 v -4.01124 -4.01123 l -2.17432,-2.31445 -2.17431,-2.31446 h -2.39143 -2.39143 l -1.854171,0.99233 -1.854173,0.99232 -1.107267,3.35505 -1.107268,3.35506 0.676194,1.90262 0.676195,1.90262 2.025302,2.25 2.025298,2.25 h 2.51124 2.51123 z m 99.31446,8.4105 -3.5,-1.88417 -2.25,-4.3879 -2.25,-4.3879 v -4.13082 -4.13083 l 2.27492,-4.30195 2.27492,-4.30194 3.45948,-1.85534 3.45947,-1.85534 h 4.89757 4.89757 l 3.29708,2.03771 3.29708,2.03771 2.07095,4.27802 2.07096,4.27801 v 3.18428 3.18427 h -11 -11 v 1.4433 1.4433 l 2.2225,1.5567 2.22251,1.5567 h 2.55499 2.55498 l 2.32409,-1.62785 2.32409,-1.62785 3.97792,1.19181 3.97792,1.19182 -1.42928,2.15261 -1.42928,2.15261 -2.66099,1.98672 -2.661,1.98672 -6.23923,0.35688 -6.23922,0.35689 z m 13.97348,-20.28574 -1.09689,-2.04955 -2.46719,-1.12413 -2.46719,-1.12413 -2.65806,1.98453 -2.65805,1.98453 -0.39639,1.18915 -0.39638,1.18915 h 6.61852 6.61851 z m 137.47694,20.64296 -3.04958,-1.32831 -2.70042,-3.20928 -2.70042,-3.20927 v -0.79331 -0.79331 l 4.36295,-1.22156 4.36295,-1.22155 2.5916,2.59159 2.59159,2.59159 h 2.82294 2.82295 l 2.22251,-1.5567 2.22251,-1.5567 v -1.78831 -1.78831 l -1.75,-1.53839 -1.75,-1.53838 -5.97791,-1.71079 -5.97791,-1.71079 -2.747,-1.95604 -2.747,-1.95604 -1.15238,-3.84629 -1.15237,-3.8463 1.37728,-4.26439 1.37729,-4.26439 2.78196,-2.0582 2.78197,-2.05821 6.84388,-0.38672 6.84388,-0.38671 3.60839,1.71229 3.60839,1.7123 2.16019,3.49526 2.16019,3.49526 -1.32957,0.82172 -1.32957,0.82172 -3.23843,0.60753 -3.23843,0.60753 -2.53097,-2.53097 -2.53098,-2.53098 h -2.89046 -2.89047 l -1.65499,1.82874 -1.65498,1.82875 v 1.51627 1.51627 l 1.75,1.52779 1.75,1.52779 5.08393,1.1871 5.08393,1.1871 3.11752,1.89587 3.11752,1.89588 1.65992,3.20994 1.65992,3.20993 -0.49311,4.37487 -0.49311,4.37486 -1.86826,2.09744 -1.86826,2.09744 -3.21789,1.36198 -3.21788,1.36198 -5.78212,-0.0391 -5.78211,-0.0391 z m 53,0 -3.04958,-1.32831 -2.70042,-3.20928 -2.70042,-3.20927 v -0.79331 -0.79331 l 4.36295,-1.22156 4.36295,-1.22155 2.5916,2.59159 2.59159,2.59159 h 2.82294 2.82295 l 2.22251,-1.5567 2.22251,-1.5567 v -1.78831 -1.78831 l -1.75,-1.53839 -1.75,-1.53838 -5.97791,-1.71079 -5.97791,-1.71079 -2.747,-1.95604 -2.747,-1.95604 -1.15238,-3.84629 -1.15237,-3.8463 1.37728,-4.26439 1.37729,-4.26439 2.78196,-2.0582 2.78197,-2.05821 6.84388,-0.38672 6.84388,-0.38671 3.60839,1.71229 3.60839,1.7123 2.16019,3.49526 2.16019,3.49526 -1.32957,0.82172 -1.32957,0.82172 -3.23843,0.60753 -3.23843,0.60753 -2.53097,-2.53097 -2.53098,-2.53098 h -2.89046 -2.89047 l -1.65499,1.82874 -1.65498,1.82875 v 1.51627 1.51627 l 1.75,1.52779 1.75,1.52779 5.08393,1.1871 5.08393,1.1871 3.11752,1.89587 3.11752,1.89588 1.65992,3.20994 1.65992,3.20993 -0.49311,4.37487 -0.49311,4.37486 -1.86826,2.09744 -1.86826,2.09744 -3.21789,1.36198 -3.21788,1.36198 -5.78212,-0.0391 -5.78211,-0.0391 z m 37.54958,-0.35722 -3.5,-1.88417 -2.25,-4.3879 -2.25,-4.3879 v -4.13082 -4.13083 l 2.27492,-4.30195 2.27492,-4.30194 3.45948,-1.85534 3.45947,-1.85534 h 4.89757 4.89757 l 3.29708,2.03771 3.29708,2.03771 2.07095,4.27802 2.07096,4.27801 v 3.18428 3.18427 h -11 -11 v 1.4433 1.4433 l 2.2225,1.5567 2.22251,1.5567 h 2.55499 2.55498 l 2.32409,-1.62785 2.32409,-1.62785 3.97792,1.19181 3.97792,1.19182 -1.42928,2.15261 -1.42928,2.15261 -2.66099,1.98672 -2.661,1.98672 -6.23923,0.35688 -6.23922,0.35689 z m 13.97348,-20.28574 -1.09689,-2.04955 -2.46719,-1.12413 -2.46719,-1.12413 -2.65806,1.98453 -2.65805,1.98453 -0.39639,1.18915 -0.39638,1.18915 h 6.61852 6.61851 z m 56.33228,19.63769 -2.80576,-2.41187 -0.34371,-10.08813 -0.34371,-10.08814 h -2.40629 -2.40629 v -3.5 -3.5 h 2.5 2.5 v -5 -5 h 4.5 4.5 v 5 5 h 4 4 v 3.5 3.5 h -4 -4 v 6.56575 6.56574 l 1.08216,2.02204 1.08217,2.02205 2.40818,-0.60442 2.40818,-0.60441 1.3558,3.26662 1.35581,3.26663 -2.09615,1.21457 -2.09615,1.21456 -4.19424,0.0354 -4.19424,0.0354 z m 77.69424,0.64805 -3.5,-1.88417 -2.25,-4.3879 -2.25,-4.3879 v -4.13082 -4.13083 l 2.27492,-4.30195 2.27492,-4.30194 3.45948,-1.85534 3.45947,-1.85534 h 4.89757 4.89757 l 3.29708,2.03771 3.29708,2.03771 2.07095,4.27802 2.07096,4.27801 v 3.18428 3.18427 h -11 -11 v 1.4433 1.4433 l 2.2225,1.5567 2.22251,1.5567 h 2.55499 2.55498 l 2.32409,-1.62785 2.32409,-1.62785 3.97792,1.19181 3.97792,1.19182 -1.42928,2.15261 -1.42928,2.15261 -2.66099,1.98672 -2.661,1.98672 -6.23923,0.35688 -6.23922,0.35689 z m 13.97348,-20.28574 -1.09689,-2.04955 -2.46719,-1.12413 -2.46719,-1.12413 -2.65806,1.98453 -2.65805,1.98453 -0.39639,1.18915 -0.39638,1.18915 h 6.61852 6.61851 z M 235.19613,426.1069 v -22 h 4.5 4.5 v 22 22 h -4.5 -4.5 z m 31,0 v -22 h 5.26033 5.26033 l 9.98967,13.91815 9.98967,13.91814 0.27745,-13.91814 0.27746,-13.91815 h 4.47254 4.47255 v 22 22 l -4.75,-0.0337 -4.75,-0.0337 -10,-13.83853 -10,-13.83854 -0.27746,13.87227 -0.27746,13.87226 h -4.97254 -4.97254 z m 49,0 v -22 h 11.09887 11.09887 l 3.51919,1.66997 3.51919,1.66996 1.8782,3.08004 1.8782,3.08003 0.004,5.67328 0.004,5.67327 -2.70331,3.2127 -2.70331,3.2127 -3.26457,1.36403 -3.26458,1.36402 h -5.53212 -5.53211 v 7 7 h -5 -5 z m 21.54545,-2.45454 2.45455,-2.45455 v -1.91059 -1.9106 l -2.07258,-2.63486 -2.07259,-2.63486 h -4.92741 -4.92742 v 7 7 h 4.54545 4.54545 z m 140.45455,8.95454 v -15.5 h 4.5 4.5 v 1.05671 1.0567 l 2.2225,-1.5567 2.22251,-1.55671 h 4.23044 4.23044 l 2.49886,1.13856 2.49886,1.13856 1.54819,3.26257 1.5482,3.26257 v 11.59887 11.59887 h -4.5 -4.5 v -9.77749 -9.77749 l -1.55671,-2.22251 -1.5567,-2.22251 -2.1933,0.0153 -2.19329,0.0153 -1.18744,0.75504 -1.18744,0.75504 -1.06256,2.79475 -1.06256,2.79474 v 8.4349 8.4349 h -4.5 -4.5 z m 62,0 v -15.5 h 4.5 4.5 v 15.5 15.5 h -4.5 -4.5 z m 16,0 v -15.5 h 4.5 4.5 v 1.05671 1.0567 l 2.2225,-1.5567 2.22251,-1.55671 h 4.23044 4.23044 l 2.49886,1.13856 2.49886,1.13856 1.54819,3.26257 1.5482,3.26257 v 11.59887 11.59887 h -4.5 -4.5 v -9.77749 -9.77749 l -1.55671,-2.22251 -1.5567,-2.22251 -2.1933,0.0153 -2.19329,0.0153 -1.18744,0.75504 -1.18744,0.75504 -1.06256,2.79475 -1.06256,2.79474 v 8.4349 8.4349 h -4.5 -4.5 z m 71,-6.5 v -22 h 4.5 4.5 v 22 22 h -4.5 -4.5 z m -86.8,-15.2 -1.2,-1.2 v -2.6 -2.6 l 1.2,-1.2 1.2,-1.2 h 2.6 2.6 l 1.2,1.2 1.2,1.2 v 2.6 2.6 l -1.2,1.2 -1.2,1.2 h -2.6 -2.6 z m -420.78895,-29.55 -0.75958,-7.75 0.0404,-18.5 0.0404,-18.5 1.1796,-9 1.17959,-9 2.02295,-10 2.02294,-10 4.06293,-12.49225 4.06293,-12.49225 7.37516,-14.50775 7.37516,-14.50775 6.74319,-9.42688 6.7432,-9.42689 10.42943,-10.89628 10.42944,-10.89627 8.07056,-6.46516 8.07057,-6.46516 8.20827,-5.46885 8.20828,-5.46885 10.29172,-5.40092 10.29173,-5.40092 11.92676,-4.67543 11.92676,-4.67544 15.07324,-3.83009 15.07324,-3.83009 12.34174,-1.58638 12.34174,-1.58639 h 18.81652 18.81651 l 12.34174,1.59376 12.34175,1.59376 13,3.28093 13,3.28093 10,3.73117 10,3.73117 13.5,6.91568 13.5,6.91569 8.68076,6.22846 8.68076,6.22845 8.46801,7.35123 8.46801,7.35122 7.35123,8.46802 7.35123,8.46801 6.26141,8.68076 6.26141,8.68076 7.80996,15.51307 7.80995,15.51306 4.10305,12.55425 4.10305,12.55425 2.4953,11.93269 2.49529,11.93268 1.33029,10 1.33029,10 v 23.16517 23.16516 l -0.72626,0.72776 -0.72625,0.72776 -80.52375,-10.37582 -80.52374,-10.37583 v -3.057 -3.057 l -1.49167,-5.7269 -1.49167,-5.7269 -2.40418,-4.7332 -2.40417,-4.7332 -4.08859,-4.63576 -4.08859,-4.63577 -4.80826,-3.08545 -4.80826,-3.08545 -4.45731,-1.61269 -4.4573,-1.61268 -5.5,-0.79395 -5.5,-0.79395 -6.5,0.90527 -6.5,0.90527 -6.12338,2.86079 -6.12338,2.86079 -4.16221,3.7603 -4.16221,3.76031 16.00582,8.35149 16.00583,8.35148 h 1.95833 1.95834 l 1.57143,1.57143 1.57143,1.57143 v 2.90552 2.90552 l -2.49272,1.63329 -2.49271,1.63329 -2.45564,-0.61633 -2.45564,-0.61632 -1.30165,-2.63356 -1.30164,-2.63355 -14.5,-9.3481 -14.5,-9.34809 -2.25741,2.73774 -2.2574,2.73773 -2.10169,5.5 -2.10169,5.5 -0.50976,6.02501 -0.50976,6.02501 -82.63115,10.26881 -82.63114,10.26881 -1.66469,-0.0438 -1.66468,-0.0438 z m 85.22742,-11.42796 75.13848,-9.24749 1.22276,-5.46387 1.22276,-5.46388 1.90247,-4.43827 1.90246,-4.43827 2.12802,-2.98853 2.12801,-2.98852 -1.39172,-0.92491 -1.39171,-0.9249 -5.75,-3.61384 -5.75,-3.61383 v -0.85786 -0.85787 h 0.76226 0.76227 l 7.29765,3.84008 7.29766,3.84008 3.19008,-3.10909 3.19008,-3.10908 3.87564,-3.04259 3.87565,-3.0426 -38.22882,-67.4384 -38.22881,-67.4384 -0.6489,-0.70206 -0.6489,-0.70207 -9.49793,5.71051 -9.49793,5.71052 -8.20242,6.25027 -8.20242,6.25028 -6.21686,5.74127 -6.21685,5.74128 -7.45239,8.5 -7.4524,8.5 -6.85637,10.37094 -6.85636,10.37093 -4.91934,10.12907 -4.91933,10.12906 -3.09921,8.81998 -3.09921,8.81998 -1.95774,7.68002 -1.95775,7.68002 -1.56112,8.96956 -1.56112,8.96955 -0.95768,13.40061 -0.95767,13.40061 0.62744,12.37984 0.62744,12.37983 0.59568,0.0348 0.59568,0.0348 z m 329.05375,-10.57204 -0.59706,-19.75 -1.48877,-10 -1.48877,-10 -2.12912,-9.82308 -2.12912,-9.82308 -3.46156,-10.45447 -3.46155,-10.45447 -4.05772,-9.22245 -4.05772,-9.22245 -5.44476,-9.25278 -5.44477,-9.25277 -7.35163,-9.74723 -7.35164,-9.74722 -9.9027,-9.59747 -9.9027,-9.59747 -8.15013,-6.04296 -8.15014,-6.04295 -6.11982,-3.7176 -6.11983,-3.7176 -0.53901,0.53902 -0.53902,0.53901 -37.84714,66.76556 -37.84713,66.76556 4.74698,3.1968 4.74698,3.19681 4.9666,5.43425 4.96661,5.43426 3.2062,6.01546 3.20621,6.01546 1.46004,6.25864 1.46004,6.25863 0.31496,0.22534 0.31497,0.22533 70,9.0723 70,9.0723 2.39464,0.10066 2.39464,0.10066 z m -200.19222,-46.43323 9,-0.0531 4.47288,1.06193 4.47289,1.06194 0.10026,-0.19378 0.10026,-0.19379 37.92685,-66.90857 37.92686,-66.90858 0.30109,-0.74472 0.3011,-0.74472 -5.71338,-2.61568 -5.71338,-2.61567 -9.08772,-3.40192 -9.08771,-3.40193 -10,-2.51718 -10,-2.51717 -9,-1.66566 -9,-1.66565 -21.06951,-0.51536 -21.0695,-0.51536 -13.1399,1.67246 -13.1399,1.67245 -10.2906,2.47054 -10.29059,2.47054 -6.5,2.08715 -6.5,2.08715 -10.25,4.02666 -10.25,4.02667 v 0.93034 0.93034 l 34.13655,60.18194 34.13656,60.18193 4.38992,7.64417 4.38992,7.64416 4.72352,-1.45925 4.72353,-1.45924 z"
         id="path3" />
      <path
         style="fill:#f4c700"
         d="m 204.89461,348.01138 -3.80152,-0.89463 -5.44248,-2.5747 -5.44247,-2.57471 -5.40502,-4.4029 -5.40503,-4.4029 -4.01405,-6.01109 -4.01405,-6.01109 -2.08049,-6.26623 -2.08048,-6.26623 -0.59775,-6 -0.59774,-6 1.5847,-7.47636 1.58469,-7.47637 2.64035,-5.39666 2.64034,-5.39666 6.34553,-6.7266 6.34554,-6.7266 5.86379,-3.12537 5.86379,-3.12537 6.40693,-1.51022 6.40694,-1.51022 5.20077,-0.0148 5.20078,-0.0148 5.29922,1.10509 5.29923,1.10508 6.19831,2.92133 6.19831,2.92133 5.72068,5.22359 5.72067,5.22358 3.27438,5.11343 3.27438,5.11343 1.95497,5.88657 1.95498,5.88657 0.669,6 0.66901,6 -1.55613,7.5 -1.55613,7.5 -3.22862,6.38355 -3.22861,6.38355 -5.54359,5.61645 -5.5436,5.61645 -6.3574,3.37175 -6.3574,3.37174 -5.13161,1.36639 -5.1316,1.36639 -8,-0.0886 -8,-0.0886 z m 233.68502,-15.25745 -5.11649,-1.3005 -4.54955,-2.66622 -4.54955,-2.66621 -3.52736,-4.12092 -3.52736,-4.12093 -2.29506,-4.63612 -2.29507,-4.63613 -0.0108,-10 -0.0108,-10 2.78338,-5.28415 2.78338,-5.28415 3.9317,-3.9317 3.93169,-3.93169 5.28415,-2.71131 5.28416,-2.71131 8.5,-0.41877 8.5,-0.41877 5.70163,2.14968 5.70163,2.14968 5.01779,4.51143 5.0178,4.51143 3.28057,6.66379 3.28058,6.66379 -0.0371,8.02103 -0.0371,8.02102 -2.78678,6.1104 -2.78679,6.11039 -4.67609,4.5901 -4.67608,4.5901 -5.58591,2.54769 -5.5859,2.54769 -5.9141,0.47558 -5.91409,0.47559 z m -115.63758,-68.7327 -3.75408,-0.88477 -4.76573,-2.41497 -4.76572,-2.41498 -4.7619,-5.09085 -4.7619,-5.09086 -2.13587,-4.75895 -2.13588,-4.75895 -0.0824,-8.5 -0.0824,-8.5 2.87952,-6.23431 2.87952,-6.23431 4.90325,-4.58642 4.90325,-4.58641 4.5146,-1.99702 4.51461,-1.99703 4.94613,-0.78188 4.94614,-0.78188 5.59427,0.87727 5.59427,0.87727 4.70786,2.38565 4.70786,2.38566 4.17305,4.17305 4.17305,4.17305 2.70313,5.52498 2.70312,5.52499 0.42604,7.63867 0.42604,7.63867 -2.13324,5.65254 -2.13324,5.65254 -3.39837,4.4507 -3.39836,4.4507 -4.82614,3.09693 -4.82615,3.09693 -5.9502,1.54983 -5.95021,1.54983 -3.0399,-0.10045 -3.0399,-0.10045 z"
         id="path2" />
    </g>
  </g>
</svg>
